<svg id="visual" viewBox="0 0 900 675" width="900" height="675" xmlns="http://www.w3.org/2000/svg" xmlns:xlink="http://www.w3.org/1999/xlink" version="1.1"><g stroke-width="1" stroke-linejoin="bevel"><path d="M451.8 342.5L486 387L459.8 333.3Z" fill="#da4640" stroke="#da4640"></path><path d="M442.3 374.5L484.3 392L486 387Z" fill="#ba8e8d" stroke="#ba8e8d"></path><path d="M451.8 342.5L442.3 374.5L486 387Z" fill="#c97876" stroke="#c97876"></path><path d="M522.5 374L520 370.5L486 387Z" fill="#c28382" stroke="#c28382"></path><path d="M486 387L520 370.5L459.8 333.3Z" fill="#c28382" stroke="#c28382"></path><path d="M484.3 392L522.5 374L486 387Z" fill="#d7544e" stroke="#d7544e"></path><path d="M380 382.8L422.8 371L345.5 355.3Z" fill="#c97876" stroke="#c97876"></path><path d="M451.8 342.5L422.8 371L442.3 374.5Z" fill="#da4640" stroke="#da4640"></path><path d="M442.3 374.5L402.8 439.8L484.3 392Z" fill="#c97876" stroke="#c97876"></path><path d="M546.8 372L522 311.3L520 370.5Z" fill="#c97876" stroke="#c97876"></path><path d="M520 370.5L522 311.3L459.8 333.3Z" fill="#dd2020" stroke="#dd2020"></path><path d="M557.5 430.3L546.8 372L522.5 374Z" fill="#dd2020" stroke="#dd2020"></path><path d="M522.5 374L546.8 372L520 370.5Z" fill="#c28382" stroke="#c28382"></path><path d="M422.8 371L397.5 404L442.3 374.5Z" fill="#dc3631" stroke="#dc3631"></path><path d="M557.5 430.3L577.8 373.5L546.8 372Z" fill="#c28382" stroke="#c28382"></path><path d="M546.8 372L594.5 331.8L522 311.3Z" fill="#c28382" stroke="#c28382"></path><path d="M409.5 264.5L422.8 371L451.8 342.5Z" fill="#c28382" stroke="#c28382"></path><path d="M422.8 371L380 382.8L397.5 404Z" fill="#dc3631" stroke="#dc3631"></path><path d="M542.3 471.8L557.5 430.3L484.3 392Z" fill="#c28382" stroke="#c28382"></path><path d="M484.3 392L557.5 430.3L522.5 374Z" fill="#da4640" stroke="#da4640"></path><path d="M620 295.3L514.3 256L522 311.3Z" fill="#ba8e8d" stroke="#ba8e8d"></path><path d="M522 311.3L514.3 256L459.8 333.3Z" fill="#dd2020" stroke="#dd2020"></path><path d="M459.8 333.3L409.5 264.5L451.8 342.5Z" fill="#d4615c" stroke="#d4615c"></path><path d="M340.3 403L402.8 439.8L397.5 404Z" fill="#da4640" stroke="#da4640"></path><path d="M397.5 404L402.8 439.8L442.3 374.5Z" fill="#cf6d69" stroke="#cf6d69"></path><path d="M514.3 256L409.5 264.5L459.8 333.3Z" fill="#dd2020" stroke="#dd2020"></path><path d="M611.8 338.3L594.5 331.8L577.8 373.5Z" fill="#b09898" stroke="#b09898"></path><path d="M577.8 373.5L594.5 331.8L546.8 372Z" fill="#da4640" stroke="#da4640"></path><path d="M537.5 211.8L501.3 231.3L514.3 256Z" fill="#cf6d69" stroke="#cf6d69"></path><path d="M514.3 256L501.3 231.3L409.5 264.5Z" fill="#b09898" stroke="#b09898"></path><path d="M522.3 506.3L542.3 471.8L484.3 392Z" fill="#dc3631" stroke="#dc3631"></path><path d="M639.5 403.5L611.8 338.3L577.8 373.5Z" fill="#d4615c" stroke="#d4615c"></path><path d="M409.5 264.5L345.5 355.3L422.8 371Z" fill="#a5a2a2" stroke="#a5a2a2"></path><path d="M380 382.8L340.3 403L397.5 404Z" fill="#da4640" stroke="#da4640"></path><path d="M611 425L577.8 373.5L557.5 430.3Z" fill="#dc3631" stroke="#dc3631"></path><path d="M594.5 331.8L620 295.3L522 311.3Z" fill="#ba8e8d" stroke="#ba8e8d"></path><path d="M345.5 355.3L340.3 403L380 382.8Z" fill="#da4640" stroke="#da4640"></path><path d="M542.3 471.8L611 425L557.5 430.3Z" fill="#a5a2a2" stroke="#a5a2a2"></path><path d="M314.3 321.5L328.5 352.8L345.5 355.3Z" fill="#ba8e8d" stroke="#ba8e8d"></path><path d="M345.5 355.3L328.5 352.8L340.3 403Z" fill="#c97876" stroke="#c97876"></path><path d="M665.3 284.5L620 295.3L611.8 338.3Z" fill="#c28382" stroke="#c28382"></path><path d="M611.8 338.3L620 295.3L594.5 331.8Z" fill="#cf6d69" stroke="#cf6d69"></path><path d="M402.8 439.8L522.3 506.3L484.3 392Z" fill="#d4615c" stroke="#d4615c"></path><path d="M649 541.5L670 420.8L611 425Z" fill="#b09898" stroke="#b09898"></path><path d="M620 295.3L537.5 211.8L514.3 256Z" fill="#dc3631" stroke="#dc3631"></path><path d="M501.3 231.3L387.8 225L409.5 264.5Z" fill="#d4615c" stroke="#d4615c"></path><path d="M409 137.8L387.8 225L501.3 231.3Z" fill="#d7544e" stroke="#d7544e"></path><path d="M409.5 264.5L314.3 321.5L345.5 355.3Z" fill="#d7544e" stroke="#d7544e"></path><path d="M670 420.8L639.5 403.5L611 425Z" fill="#d4615c" stroke="#d4615c"></path><path d="M611 425L639.5 403.5L577.8 373.5Z" fill="#dd2020" stroke="#dd2020"></path><path d="M362.5 218.8L314.3 321.5L409.5 264.5Z" fill="#d7544e" stroke="#d7544e"></path><path d="M328.5 352.8L275.3 343.8L340.3 403Z" fill="#c97876" stroke="#c97876"></path><path d="M422.8 540.5L453 528.3L402.8 439.8Z" fill="#c28382" stroke="#c28382"></path><path d="M402.8 439.8L453 528.3L522.3 506.3Z" fill="#c97876" stroke="#c97876"></path><path d="M590.8 177.5L526 189L537.5 211.8Z" fill="#d7544e" stroke="#d7544e"></path><path d="M537.5 211.8L526 189L501.3 231.3Z" fill="#dd2020" stroke="#dd2020"></path><path d="M409 137.8L362.5 218.8L387.8 225Z" fill="#c97876" stroke="#c97876"></path><path d="M387.8 225L362.5 218.8L409.5 264.5Z" fill="#b09898" stroke="#b09898"></path><path d="M329.8 554.8L422.8 540.5L402.8 439.8Z" fill="#d4615c" stroke="#d4615c"></path><path d="M453 528.3L552.3 558.5L522.3 506.3Z" fill="#cf6d69" stroke="#cf6d69"></path><path d="M681.8 379.8L665.3 284.5L611.8 338.3Z" fill="#d7544e" stroke="#d7544e"></path><path d="M620 295.3L619.5 208.3L537.5 211.8Z" fill="#dc3631" stroke="#dc3631"></path><path d="M649 541.5L611 425L542.3 471.8Z" fill="#dc3631" stroke="#dc3631"></path><path d="M639.5 403.5L681.8 379.8L611.8 338.3Z" fill="#c28382" stroke="#c28382"></path><path d="M665.3 284.5L650 250L620 295.3Z" fill="#d4615c" stroke="#d4615c"></path><path d="M243.3 222L275.3 343.8L314.3 321.5Z" fill="#dc3631" stroke="#dc3631"></path><path d="M314.3 321.5L275.3 343.8L328.5 352.8Z" fill="#dc3631" stroke="#dc3631"></path><path d="M340.3 403L329.8 554.8L402.8 439.8Z" fill="#d4615c" stroke="#d4615c"></path><path d="M670 420.8L681.8 379.8L639.5 403.5Z" fill="#cf6d69" stroke="#cf6d69"></path><path d="M650 250L619.5 208.3L620 295.3Z" fill="#b09898" stroke="#b09898"></path><path d="M405.8 580.3L430 561.8L422.8 540.5Z" fill="#da4640" stroke="#da4640"></path><path d="M422.8 540.5L430 561.8L453 528.3Z" fill="#dc3631" stroke="#dc3631"></path><path d="M522.3 506.3L552.3 558.5L542.3 471.8Z" fill="#b09898" stroke="#b09898"></path><path d="M619.5 208.3L590.8 177.5L537.5 211.8Z" fill="#d4615c" stroke="#d4615c"></path><path d="M430 561.8L552.3 558.5L453 528.3Z" fill="#c97876" stroke="#c97876"></path><path d="M275.3 343.8L268.5 441.3L340.3 403Z" fill="#da4640" stroke="#da4640"></path><path d="M338.8 103.8L301.5 216L362.5 218.8Z" fill="#d7544e" stroke="#d7544e"></path><path d="M362.5 218.8L301.5 216L314.3 321.5Z" fill="#c97876" stroke="#c97876"></path><path d="M409 137.8L501.3 231.3L433 126.5Z" fill="#cf6d69" stroke="#cf6d69"></path><path d="M590.8 177.5L537.3 136.8L526 189Z" fill="#ba8e8d" stroke="#ba8e8d"></path><path d="M433 126.5L501.3 231.3L526 189Z" fill="#cf6d69" stroke="#cf6d69"></path><path d="M329.8 554.8L405.8 580.3L422.8 540.5Z" fill="#d4615c" stroke="#d4615c"></path><path d="M430 561.8L521.5 650.8L552.3 558.5Z" fill="#a5a2a2" stroke="#a5a2a2"></path><path d="M537.3 136.8L433 126.5L526 189Z" fill="#dd2020" stroke="#dd2020"></path><path d="M611.5 152L590.8 148.8L590.8 177.5Z" fill="#dd2020" stroke="#dd2020"></path><path d="M590.8 177.5L590.8 148.8L537.3 136.8Z" fill="#b09898" stroke="#b09898"></path><path d="M611.5 152L590.8 177.5L634.8 161Z" fill="#da4640" stroke="#da4640"></path><path d="M723 373.5L720.3 344.8L681.8 379.8Z" fill="#c28382" stroke="#c28382"></path><path d="M681.8 379.8L720.3 344.8L665.3 284.5Z" fill="#dc3631" stroke="#dc3631"></path><path d="M665.3 284.5L714.3 246L650 250Z" fill="#dd2020" stroke="#dd2020"></path><path d="M634.8 161L590.8 177.5L619.5 208.3Z" fill="#d4615c" stroke="#d4615c"></path><path d="M634.8 161L619.5 208.3L662 147.8Z" fill="#b09898" stroke="#b09898"></path><path d="M590.8 148.8L598.5 126.5L537.3 136.8Z" fill="#b09898" stroke="#b09898"></path><path d="M670 420.8L723 373.5L681.8 379.8Z" fill="#ba8e8d" stroke="#ba8e8d"></path><path d="M752.3 388L723 373.5L670 420.8Z" fill="#c97876" stroke="#c97876"></path><path d="M278 527L329.8 554.8L340.3 403Z" fill="#da4640" stroke="#da4640"></path><path d="M552.3 558.5L649 541.5L542.3 471.8Z" fill="#dd2020" stroke="#dd2020"></path><path d="M662 147.8L619.5 208.3L650 250Z" fill="#d7544e" stroke="#d7544e"></path><path d="M552.3 558.5L620.5 571.5L649 541.5Z" fill="#d4615c" stroke="#d4615c"></path><path d="M638 616.8L620.5 571.5L552.3 558.5Z" fill="#dd2020" stroke="#dd2020"></path><path d="M665 115.5L598.5 126.5L611.5 152Z" fill="#d7544e" stroke="#d7544e"></path><path d="M611.5 152L598.5 126.5L590.8 148.8Z" fill="#cf6d69" stroke="#cf6d69"></path><path d="M537.3 136.8L467.8 57.3L433 126.5Z" fill="#da4640" stroke="#da4640"></path><path d="M738.5 297.3L665.3 284.5L720.3 344.8Z" fill="#d4615c" stroke="#d4615c"></path><path d="M738.5 297.3L714.3 246L665.3 284.5Z" fill="#da4640" stroke="#da4640"></path><path d="M329.8 554.8L371 614.5L405.8 580.3Z" fill="#d7544e" stroke="#d7544e"></path><path d="M278 527L314.3 560.3L329.8 554.8Z" fill="#c97876" stroke="#c97876"></path><path d="M268.5 441.3L278 527L340.3 403Z" fill="#ba8e8d" stroke="#ba8e8d"></path><path d="M707 548.3L675.8 534.3L662.8 606.5Z" fill="#da4640" stroke="#da4640"></path><path d="M649 541.5L675.8 534.3L670 420.8Z" fill="#c97876" stroke="#c97876"></path><path d="M783.3 314.3L738.5 297.3L720.3 344.8Z" fill="#c97876" stroke="#c97876"></path><path d="M220 471.8L241.3 486.5L268.5 441.3Z" fill="#da4640" stroke="#da4640"></path><path d="M268.5 441.3L241.3 486.5L278 527Z" fill="#b09898" stroke="#b09898"></path><path d="M220 471.8L268.5 441.3L160.8 432.8Z" fill="#a5a2a2" stroke="#a5a2a2"></path><path d="M218.3 208.3L243.3 222L223.3 191.8Z" fill="#cf6d69" stroke="#cf6d69"></path><path d="M301.5 216L243.3 222L314.3 321.5Z" fill="#c97876" stroke="#c97876"></path><path d="M728.5 489L752.3 388L670 420.8Z" fill="#ba8e8d" stroke="#ba8e8d"></path><path d="M723 373.5L752.3 388L720.3 344.8Z" fill="#d4615c" stroke="#d4615c"></path><path d="M783.3 314.3L734.5 250L738.5 297.3Z" fill="#cf6d69" stroke="#cf6d69"></path><path d="M738.5 297.3L734.5 250L714.3 246Z" fill="#dc3631" stroke="#dc3631"></path><path d="M714.3 246L662 147.8L650 250Z" fill="#c28382" stroke="#c28382"></path><path d="M634.8 161L665 115.5L611.5 152Z" fill="#b09898" stroke="#b09898"></path><path d="M281.3 621.8L371 614.5L314.3 560.3Z" fill="#b09898" stroke="#b09898"></path><path d="M314.3 560.3L371 614.5L329.8 554.8Z" fill="#cf6d69" stroke="#cf6d69"></path><path d="M488.3 675L521.5 650.8L430 561.8Z" fill="#ba8e8d" stroke="#ba8e8d"></path><path d="M724.3 117.8L662 147.8L714.3 246Z" fill="#ba8e8d" stroke="#ba8e8d"></path><path d="M241.3 486.5L259 531.3L278 527Z" fill="#d4615c" stroke="#d4615c"></path><path d="M278 527L271.5 592.5L314.3 560.3Z" fill="#b09898" stroke="#b09898"></path><path d="M157.5 401L268.5 441.3L275.3 343.8Z" fill="#cf6d69" stroke="#cf6d69"></path><path d="M241.3 486.5L189 510.5L259 531.3Z" fill="#ba8e8d" stroke="#ba8e8d"></path><path d="M675.8 534.3L728.5 489L670 420.8Z" fill="#d4615c" stroke="#d4615c"></path><path d="M376.8 55.5L338.8 103.8L409 137.8Z" fill="#c97876" stroke="#c97876"></path><path d="M409 137.8L338.8 103.8L362.5 218.8Z" fill="#ba8e8d" stroke="#ba8e8d"></path><path d="M376.8 55.5L409 137.8L433 126.5Z" fill="#da4640" stroke="#da4640"></path><path d="M243.3 222L193 289.5L275.3 343.8Z" fill="#da4640" stroke="#da4640"></path><path d="M488.3 675L430 561.8L429.8 675Z" fill="#c97876" stroke="#c97876"></path><path d="M662.8 606.5L675.8 534.3L649 541.5Z" fill="#dd2020" stroke="#dd2020"></path><path d="M662.8 606.5L649 541.5L620.5 571.5Z" fill="#a5a2a2" stroke="#a5a2a2"></path><path d="M675.8 534.3L707 548.3L728.5 489Z" fill="#d4615c" stroke="#d4615c"></path><path d="M565.8 69.3L537.3 136.8L598.5 126.5Z" fill="#ba8e8d" stroke="#ba8e8d"></path><path d="M565.8 69.3L536.3 63.3L537.3 136.8Z" fill="#b09898" stroke="#b09898"></path><path d="M223.3 191.8L243.3 222L240 167Z" fill="#d4615c" stroke="#d4615c"></path><path d="M243.3 222L198 240.3L193 289.5Z" fill="#c97876" stroke="#c97876"></path><path d="M536.3 63.3L467.8 57.3L537.3 136.8Z" fill="#c97876" stroke="#c97876"></path><path d="M629 24.3L565.8 69.3L598.5 126.5Z" fill="#b09898" stroke="#b09898"></path><path d="M197.8 236.8L198 240.3L243.3 222Z" fill="#b09898" stroke="#b09898"></path><path d="M240 167L243.3 222L301.5 216Z" fill="#c28382" stroke="#c28382"></path><path d="M218.3 208.3L197.8 236.8L243.3 222Z" fill="#c28382" stroke="#c28382"></path><path d="M521.5 650.8L638 616.8L552.3 558.5Z" fill="#ba8e8d" stroke="#ba8e8d"></path><path d="M338.8 103.8L240 167L301.5 216Z" fill="#dc3631" stroke="#dc3631"></path><path d="M206 185.5L197.8 236.8L218.3 208.3Z" fill="#ba8e8d" stroke="#ba8e8d"></path><path d="M177.8 267L173.8 298.5L193 289.5Z" fill="#d4615c" stroke="#d4615c"></path><path d="M724.3 117.8L665 115.5L662 147.8Z" fill="#d7544e" stroke="#d7544e"></path><path d="M662 147.8L665 115.5L634.8 161Z" fill="#dc3631" stroke="#dc3631"></path><path d="M831.8 416L783.3 314.3L752.3 388Z" fill="#cf6d69" stroke="#cf6d69"></path><path d="M752.3 388L783.3 314.3L720.3 344.8Z" fill="#a5a2a2" stroke="#a5a2a2"></path><path d="M734.5 250L724.3 117.8L714.3 246Z" fill="#cf6d69" stroke="#cf6d69"></path><path d="M725.3 546.3L730.3 537.5L707 548.3Z" fill="#c97876" stroke="#c97876"></path><path d="M707 548.3L730.3 537.5L728.5 489Z" fill="#a5a2a2" stroke="#a5a2a2"></path><path d="M833.8 431.8L831.8 416L752.3 388Z" fill="#dd2020" stroke="#dd2020"></path><path d="M638 616.8L662.8 606.5L620.5 571.5Z" fill="#dc3631" stroke="#dc3631"></path><path d="M177.8 267L193 289.5L198 240.3Z" fill="#b09898" stroke="#b09898"></path><path d="M193 289.5L147.5 347.5L275.3 343.8Z" fill="#b09898" stroke="#b09898"></path><path d="M738.3 553.8L725.3 546.3L707 548.3Z" fill="#c97876" stroke="#c97876"></path><path d="M159.5 576.8L271.5 592.5L259 531.3Z" fill="#da4640" stroke="#da4640"></path><path d="M259 531.3L271.5 592.5L278 527Z" fill="#d4615c" stroke="#d4615c"></path><path d="M429.8 675L430 561.8L405.8 580.3Z" fill="#c97876" stroke="#c97876"></path><path d="M197.8 236.8L177.8 267L198 240.3Z" fill="#a5a2a2" stroke="#a5a2a2"></path><path d="M158.5 215.3L177.8 267L197.8 236.8Z" fill="#dd2020" stroke="#dd2020"></path><path d="M429.8 675L405.8 580.3L371 614.5Z" fill="#d4615c" stroke="#d4615c"></path><path d="M521.5 650.8L605.5 675L638 616.8Z" fill="#c28382" stroke="#c28382"></path><path d="M467.8 57.3L376.8 55.5L433 126.5Z" fill="#d4615c" stroke="#d4615c"></path><path d="M338.8 103.8L289.3 66.5L240 167Z" fill="#ba8e8d" stroke="#ba8e8d"></path><path d="M378 675L429.8 675L371 614.5Z" fill="#dd2020" stroke="#dd2020"></path><path d="M240 167L206 185.5L223.3 191.8Z" fill="#da4640" stroke="#da4640"></path><path d="M223.3 191.8L206 185.5L218.3 208.3Z" fill="#dd2020" stroke="#dd2020"></path><path d="M189 125.3L206 185.5L240 167Z" fill="#b09898" stroke="#b09898"></path><path d="M376.8 55.5L333.5 69.5L338.8 103.8Z" fill="#da4640" stroke="#da4640"></path><path d="M147.5 347.5L193 289.5L173.8 298.5Z" fill="#dd2020" stroke="#dd2020"></path><path d="M147.5 347.5L157.5 401L275.3 343.8Z" fill="#d4615c" stroke="#d4615c"></path><path d="M220 471.8L189 510.5L241.3 486.5Z" fill="#da4640" stroke="#da4640"></path><path d="M691.8 631.8L738.3 553.8L707 548.3Z" fill="#a5a2a2" stroke="#a5a2a2"></path><path d="M725.3 546.3L738.3 553.8L730.3 537.5Z" fill="#c28382" stroke="#c28382"></path><path d="M730.3 537.5L811.5 508.3L728.5 489Z" fill="#c97876" stroke="#c97876"></path><path d="M157.5 401L160.8 432.8L268.5 441.3Z" fill="#d4615c" stroke="#d4615c"></path><path d="M160.5 450.8L189 510.5L220 471.8Z" fill="#c28382" stroke="#c28382"></path><path d="M604 0L550.3 36.5L565.8 69.3Z" fill="#cf6d69" stroke="#cf6d69"></path><path d="M565.8 69.3L550.3 36.5L536.3 63.3Z" fill="#c97876" stroke="#c97876"></path><path d="M536.3 63.3L538.3 0L467.8 57.3Z" fill="#da4640" stroke="#da4640"></path><path d="M467.8 57.3L432.8 0L376.8 55.5Z" fill="#dc3631" stroke="#dc3631"></path><path d="M274.5 667.8L281.3 621.8L213 675Z" fill="#dd2020" stroke="#dd2020"></path><path d="M271.5 592.5L281.3 621.8L314.3 560.3Z" fill="#a5a2a2" stroke="#a5a2a2"></path><path d="M147.5 347.5L173.8 298.5L91.3 299.5Z" fill="#c28382" stroke="#c28382"></path><path d="M144.8 349.3L147.5 347.5L91.3 299.5Z" fill="#b09898" stroke="#b09898"></path><path d="M148.8 441.3L160.5 450.8L160.8 432.8Z" fill="#cf6d69" stroke="#cf6d69"></path><path d="M148.8 441.3L160.8 432.8L157.5 401Z" fill="#b09898" stroke="#b09898"></path><path d="M160.8 432.8L160.5 450.8L220 471.8Z" fill="#d7544e" stroke="#d7544e"></path><path d="M429.8 675L541.3 683.8L488.3 675Z" fill="#dc3631" stroke="#dc3631"></path><path d="M488.3 675L541.3 683.8L521.5 650.8Z" fill="#dd2020" stroke="#dd2020"></path><path d="M638 616.8L691.8 631.8L662.8 606.5Z" fill="#cf6d69" stroke="#cf6d69"></path><path d="M348.5 675L378 675L371 614.5Z" fill="#da4640" stroke="#da4640"></path><path d="M429.8 675L378 675L541.3 683.8Z" fill="#b09898" stroke="#b09898"></path><path d="M91.3 299.5L173.8 298.5L177.8 267Z" fill="#cf6d69" stroke="#cf6d69"></path><path d="M147.5 347.5L144.8 349.3L157.5 401Z" fill="#ba8e8d" stroke="#ba8e8d"></path><path d="M127.8 455L148.8 441.3L157.5 401Z" fill="#d7544e" stroke="#d7544e"></path><path d="M160.5 450.8L114.8 503.5L189 510.5Z" fill="#da4640" stroke="#da4640"></path><path d="M541.3 683.8L605.5 675L521.5 650.8Z" fill="#dc3631" stroke="#dc3631"></path><path d="M662.8 606.5L691.8 631.8L707 548.3Z" fill="#ba8e8d" stroke="#ba8e8d"></path><path d="M281.3 621.8L348.5 675L371 614.5Z" fill="#dc3631" stroke="#dc3631"></path><path d="M378 675L348.5 675L541.3 683.8Z" fill="#ba8e8d" stroke="#ba8e8d"></path><path d="M816.8 168L724.3 117.8L734.5 250Z" fill="#ba8e8d" stroke="#ba8e8d"></path><path d="M544.8 0L538.3 0L550.3 36.5Z" fill="#cf6d69" stroke="#cf6d69"></path><path d="M325.3 0L289.3 66.5L333.5 69.5Z" fill="#b09898" stroke="#b09898"></path><path d="M333.5 69.5L289.3 66.5L338.8 103.8Z" fill="#ba8e8d" stroke="#ba8e8d"></path><path d="M678 675L691.8 631.8L638 616.8Z" fill="#c97876" stroke="#c97876"></path><path d="M158 137.8L158.5 215.3L206 185.5Z" fill="#dc3631" stroke="#dc3631"></path><path d="M206 185.5L158.5 215.3L197.8 236.8Z" fill="#a5a2a2" stroke="#a5a2a2"></path><path d="M541.3 683.8L632.8 675L605.5 675Z" fill="#d4615c" stroke="#d4615c"></path><path d="M605.5 675L632.8 675L638 616.8Z" fill="#d7544e" stroke="#d7544e"></path><path d="M833.8 431.8L728.5 489L811.5 508.3Z" fill="#da4640" stroke="#da4640"></path><path d="M833.8 431.8L752.3 388L728.5 489Z" fill="#b09898" stroke="#b09898"></path><path d="M783.3 314.3L824.8 258.5L734.5 250Z" fill="#dc3631" stroke="#dc3631"></path><path d="M850.8 250.3L824.8 258.5L860.5 286.5Z" fill="#d7544e" stroke="#d7544e"></path><path d="M538.3 0L432.8 0L467.8 57.3Z" fill="#ba8e8d" stroke="#ba8e8d"></path><path d="M376.8 55.5L341.3 5.3L333.5 69.5Z" fill="#ba8e8d" stroke="#ba8e8d"></path><path d="M544.8 0L550.3 36.5L564.5 0Z" fill="#ba8e8d" stroke="#ba8e8d"></path><path d="M550.3 36.5L538.3 0L536.3 63.3Z" fill="#c28382" stroke="#c28382"></path><path d="M811.5 508.3L730.3 537.5L738.3 553.8Z" fill="#c97876" stroke="#c97876"></path><path d="M860.5 286.5L824.8 258.5L783.3 314.3Z" fill="#dd2020" stroke="#dd2020"></path><path d="M629 24.3L598.5 126.5L665 115.5Z" fill="#b09898" stroke="#b09898"></path><path d="M70.5 430.3L127.8 455L157.5 401Z" fill="#b09898" stroke="#b09898"></path><path d="M148.8 441.3L127.8 455L160.5 450.8Z" fill="#d4615c" stroke="#d4615c"></path><path d="M213 675L281.3 621.8L271.5 592.5Z" fill="#da4640" stroke="#da4640"></path><path d="M70.5 430.3L157.5 401L64.3 405.8Z" fill="#c97876" stroke="#c97876"></path><path d="M727.3 82.5L629 24.3L665 115.5Z" fill="#cf6d69" stroke="#cf6d69"></path><path d="M817.5 585.8L811.5 508.3L738.3 553.8Z" fill="#d4615c" stroke="#d4615c"></path><path d="M432.8 0L396 0L376.8 55.5Z" fill="#cf6d69" stroke="#cf6d69"></path><path d="M604 0L564.5 0L550.3 36.5Z" fill="#dc3631" stroke="#dc3631"></path><path d="M229.8 76.3L212.8 102.5L240 167Z" fill="#dc3631" stroke="#dc3631"></path><path d="M229.8 76.3L240 167L289.3 66.5Z" fill="#d4615c" stroke="#d4615c"></path><path d="M815.5 124.5L727.3 82.5L724.3 117.8Z" fill="#c97876" stroke="#c97876"></path><path d="M724.3 117.8L727.3 82.5L665 115.5Z" fill="#a5a2a2" stroke="#a5a2a2"></path><path d="M212.8 102.5L189 125.3L240 167Z" fill="#dc3631" stroke="#dc3631"></path><path d="M159.5 576.8L259 531.3L189 510.5Z" fill="#dc3631" stroke="#dc3631"></path><path d="M281.3 621.8L279.3 675L348.5 675Z" fill="#d4615c" stroke="#d4615c"></path><path d="M325.3 0L264.5 52.3L289.3 66.5Z" fill="#cf6d69" stroke="#cf6d69"></path><path d="M108.5 0L158 137.8L189 125.3Z" fill="#b09898" stroke="#b09898"></path><path d="M213 675L279.3 675L274.5 667.8Z" fill="#dc3631" stroke="#dc3631"></path><path d="M274.5 667.8L279.3 675L281.3 621.8Z" fill="#ba8e8d" stroke="#ba8e8d"></path><path d="M348.5 675L57.3 691.8L541.3 683.8Z" fill="#c97876" stroke="#c97876"></path><path d="M632.8 675L678 675L638 616.8Z" fill="#c97876" stroke="#c97876"></path><path d="M766.8 624.8L777.5 604.5L738.3 553.8Z" fill="#a5a2a2" stroke="#a5a2a2"></path><path d="M541.3 683.8L678 675L632.8 675Z" fill="#b09898" stroke="#b09898"></path><path d="M264.5 52.3L229.8 76.3L289.3 66.5Z" fill="#dc3631" stroke="#dc3631"></path><path d="M396 0L362.5 0L376.8 55.5Z" fill="#dc3631" stroke="#dc3631"></path><path d="M362.5 0L341.3 5.3L376.8 55.5Z" fill="#b09898" stroke="#b09898"></path><path d="M610.5 -10.7L604 0L629 24.3Z" fill="#c28382" stroke="#c28382"></path><path d="M629 24.3L604 0L565.8 69.3Z" fill="#cf6d69" stroke="#cf6d69"></path><path d="M432.8 0L410 -18.7L396 0Z" fill="#dd2020" stroke="#dd2020"></path><path d="M396 0L410 -18.7L362.5 0Z" fill="#b09898" stroke="#b09898"></path><path d="M362.5 0L325.3 0L341.3 5.3Z" fill="#dc3631" stroke="#dc3631"></path><path d="M538.3 0L410 -18.7L432.8 0Z" fill="#d4615c" stroke="#d4615c"></path><path d="M610.5 -10.7L410 -18.7L538.3 0Z" fill="#da4640" stroke="#da4640"></path><path d="M610.5 -10.7L538.3 0L544.8 0Z" fill="#cf6d69" stroke="#cf6d69"></path><path d="M610.5 -10.7L544.8 0L564.5 0Z" fill="#d4615c" stroke="#d4615c"></path><path d="M114.8 503.5L159.5 576.8L189 510.5Z" fill="#d7544e" stroke="#d7544e"></path><path d="M860.5 286.5L783.3 314.3L900 340.3Z" fill="#dc3631" stroke="#dc3631"></path><path d="M824.8 258.5L816.8 168L734.5 250Z" fill="#cf6d69" stroke="#cf6d69"></path><path d="M850.8 250.3L816.8 168L824.8 258.5Z" fill="#b09898" stroke="#b09898"></path><path d="M766.8 624.8L738.3 553.8L691.8 631.8Z" fill="#c28382" stroke="#c28382"></path><path d="M108.5 0L189 125.3L212.8 102.5Z" fill="#da4640" stroke="#da4640"></path><path d="M189 125.3L158 137.8L206 185.5Z" fill="#dd2020" stroke="#dd2020"></path><path d="M158.5 215.3L91.3 299.5L177.8 267Z" fill="#d7544e" stroke="#d7544e"></path><path d="M900 340.3L783.3 314.3L831.8 416Z" fill="#b09898" stroke="#b09898"></path><path d="M410 -18.7L325.3 0L362.5 0Z" fill="#c28382" stroke="#c28382"></path><path d="M341.3 5.3L325.3 0L333.5 69.5Z" fill="#dd2020" stroke="#dd2020"></path><path d="M264.5 52.3L227.8 0L229.8 76.3Z" fill="#cf6d69" stroke="#cf6d69"></path><path d="M811.5 508.3L853.5 460.8L833.8 431.8Z" fill="#d7544e" stroke="#d7544e"></path><path d="M833.8 431.8L880.8 430.3L831.8 416Z" fill="#dc3631" stroke="#dc3631"></path><path d="M900 571.5L853.5 460.8L811.5 508.3Z" fill="#a5a2a2" stroke="#a5a2a2"></path><path d="M707.3 -14.7L610.5 -10.7L629 24.3Z" fill="#d4615c" stroke="#d4615c"></path><path d="M604 0L610.5 -10.7L564.5 0Z" fill="#d7544e" stroke="#d7544e"></path><path d="M66.3 265L91.3 299.5L158.5 215.3Z" fill="#ba8e8d" stroke="#ba8e8d"></path><path d="M127.8 455L114.8 503.5L160.5 450.8Z" fill="#ba8e8d" stroke="#ba8e8d"></path><path d="M61.3 437L114.8 503.5L127.8 455Z" fill="#b09898" stroke="#b09898"></path><path d="M764.3 675L766.8 624.8L691.8 631.8Z" fill="#c97876" stroke="#c97876"></path><path d="M130.8 625.8L161 605.8L159.5 576.8Z" fill="#cf6d69" stroke="#cf6d69"></path><path d="M159.5 576.8L161 605.8L271.5 592.5Z" fill="#d7544e" stroke="#d7544e"></path><path d="M792.5 675L817.5 585.8L777.5 604.5Z" fill="#dd2020" stroke="#dd2020"></path><path d="M777.5 604.5L817.5 585.8L738.3 553.8Z" fill="#b09898" stroke="#b09898"></path><path d="M900 441.3L880.8 430.3L900 443Z" fill="#d7544e" stroke="#d7544e"></path><path d="M853.5 460.8L880.8 430.3L833.8 431.8Z" fill="#da4640" stroke="#da4640"></path><path d="M816.8 168L815.5 124.5L724.3 117.8Z" fill="#c28382" stroke="#c28382"></path><path d="M727.3 82.5L707.3 -14.7L629 24.3Z" fill="#d4615c" stroke="#d4615c"></path><path d="M857.5 140.8L815.5 124.5L816.8 168Z" fill="#da4640" stroke="#da4640"></path><path d="M161 605.8L213 675L271.5 592.5Z" fill="#dd2020" stroke="#dd2020"></path><path d="M279.3 675L57.3 691.8L348.5 675Z" fill="#ba8e8d" stroke="#ba8e8d"></path><path d="M64.3 405.8L157.5 401L144.8 349.3Z" fill="#dd2020" stroke="#dd2020"></path><path d="M114.8 503.5L92.3 527.3L159.5 576.8Z" fill="#dd2020" stroke="#dd2020"></path><path d="M91.3 299.5L64.3 405.8L144.8 349.3Z" fill="#da4640" stroke="#da4640"></path><path d="M161 605.8L204.8 675L213 675Z" fill="#ba8e8d" stroke="#ba8e8d"></path><path d="M213 675L57.3 691.8L279.3 675Z" fill="#d7544e" stroke="#d7544e"></path><path d="M61.3 437L92.3 527.3L114.8 503.5Z" fill="#c28382" stroke="#c28382"></path><path d="M161 605.8L130.8 625.8L204.8 675Z" fill="#ba8e8d" stroke="#ba8e8d"></path><path d="M61.3 437L127.8 455L70.5 430.3Z" fill="#a5a2a2" stroke="#a5a2a2"></path><path d="M900 386.8L900 340.3L831.8 416Z" fill="#d7544e" stroke="#d7544e"></path><path d="M860.5 286.5L884.8 232.8L850.8 250.3Z" fill="#b09898" stroke="#b09898"></path><path d="M850.8 250.3L884.8 232.8L816.8 168Z" fill="#ba8e8d" stroke="#ba8e8d"></path><path d="M57.5 177.5L66.3 265L158.5 215.3Z" fill="#b09898" stroke="#b09898"></path><path d="M91.3 299.5L8.3 350.3L64.3 405.8Z" fill="#d4615c" stroke="#d4615c"></path><path d="M880.8 430.3L900 386.8L831.8 416Z" fill="#ba8e8d" stroke="#ba8e8d"></path><path d="M900 441.3L900 386.8L880.8 430.3Z" fill="#cf6d69" stroke="#cf6d69"></path><path d="M900 340.3L900 326.5L860.5 286.5Z" fill="#c28382" stroke="#c28382"></path><path d="M0 436L61.3 437L64.3 405.8Z" fill="#da4640" stroke="#da4640"></path><path d="M64.3 405.8L61.3 437L70.5 430.3Z" fill="#b09898" stroke="#b09898"></path><path d="M900 232L884.8 232.8L860.5 286.5Z" fill="#dd2020" stroke="#dd2020"></path><path d="M766.8 624.8L792.5 675L777.5 604.5Z" fill="#cf6d69" stroke="#cf6d69"></path><path d="M678 675L764.3 675L691.8 631.8Z" fill="#c97876" stroke="#c97876"></path><path d="M541.3 683.8L764.3 675L678 675Z" fill="#da4640" stroke="#da4640"></path><path d="M900 443L880.8 430.3L853.5 460.8Z" fill="#c28382" stroke="#c28382"></path><path d="M900 571.5L900 443L853.5 460.8Z" fill="#c28382" stroke="#c28382"></path><path d="M410 -18.7L227.8 0L325.3 0Z" fill="#dc3631" stroke="#dc3631"></path><path d="M325.3 0L227.8 0L264.5 52.3Z" fill="#dd2020" stroke="#dd2020"></path><path d="M229.8 76.3L134.5 -11.7L212.8 102.5Z" fill="#c97876" stroke="#c97876"></path><path d="M158 137.8L74.5 153.8L158.5 215.3Z" fill="#dc3631" stroke="#dc3631"></path><path d="M884.8 232.8L857.5 140.8L816.8 168Z" fill="#ba8e8d" stroke="#ba8e8d"></path><path d="M739.3 0L707.3 -14.7L727.3 82.5Z" fill="#b09898" stroke="#b09898"></path><path d="M739.3 0L727.3 82.5L760.5 16.3Z" fill="#cf6d69" stroke="#cf6d69"></path><path d="M610.5 -10.7L707.3 -14.7L410 -18.7Z" fill="#cf6d69" stroke="#cf6d69"></path><path d="M92.3 527.3L130.8 625.8L159.5 576.8Z" fill="#da4640" stroke="#da4640"></path><path d="M884.8 232.8L900 130.8L857.5 140.8Z" fill="#b09898" stroke="#b09898"></path><path d="M900 326.5L900 232L860.5 286.5Z" fill="#b09898" stroke="#b09898"></path><path d="M134.5 -11.7L220 0L227.8 0Z" fill="#cf6d69" stroke="#cf6d69"></path><path d="M227.8 0L220 0L229.8 76.3Z" fill="#d4615c" stroke="#d4615c"></path><path d="M760.5 16.3L727.3 82.5L815.5 124.5Z" fill="#dc3631" stroke="#dc3631"></path><path d="M804.5 0L760.5 16.3L857.8 36.5Z" fill="#d7544e" stroke="#d7544e"></path><path d="M764.3 675L792.5 675L766.8 624.8Z" fill="#d4615c" stroke="#d4615c"></path><path d="M817.5 585.8L900 571.5L811.5 508.3Z" fill="#da4640" stroke="#da4640"></path><path d="M541.3 683.8L792.5 675L764.3 675Z" fill="#c97876" stroke="#c97876"></path><path d="M108.5 0L74.5 153.8L158 137.8Z" fill="#d7544e" stroke="#d7544e"></path><path d="M74.5 153.8L57.5 177.5L158.5 215.3Z" fill="#b09898" stroke="#b09898"></path><path d="M0 335.5L8.3 350.3L0 324.8Z" fill="#ba8e8d" stroke="#ba8e8d"></path><path d="M8.3 350.3L91.3 299.5L0 324.8Z" fill="#ba8e8d" stroke="#ba8e8d"></path><path d="M61.3 437L0 502.3L92.3 527.3Z" fill="#c97876" stroke="#c97876"></path><path d="M92.3 527.3L46.3 593.5L130.8 625.8Z" fill="#cf6d69" stroke="#cf6d69"></path><path d="M74.5 153.8L48.5 164L57.5 177.5Z" fill="#c28382" stroke="#c28382"></path><path d="M0 314.3L91.3 299.5L66.3 265Z" fill="#d7544e" stroke="#d7544e"></path><path d="M13.3 165.8L0 105.3L0 162.8Z" fill="#c97876" stroke="#c97876"></path><path d="M903.8 597.5L900 571.5L817.5 585.8Z" fill="#dc3631" stroke="#dc3631"></path><path d="M900 232L900 130.8L884.8 232.8Z" fill="#a5a2a2" stroke="#a5a2a2"></path><path d="M857.5 140.8L900 110.3L815.5 124.5Z" fill="#c97876" stroke="#c97876"></path><path d="M0 324.8L91.3 299.5L0 314.3Z" fill="#a5a2a2" stroke="#a5a2a2"></path><path d="M8.3 350.3L0 436L64.3 405.8Z" fill="#d7544e" stroke="#d7544e"></path><path d="M0 314.3L66.3 265L0 190.5Z" fill="#c28382" stroke="#c28382"></path><path d="M0 190.5L66.3 265L57.5 177.5Z" fill="#d4615c" stroke="#d4615c"></path><path d="M900 130.8L900 120.5L857.5 140.8Z" fill="#c97876" stroke="#c97876"></path><path d="M760.5 16.3L804.5 0L739.3 0Z" fill="#dc3631" stroke="#dc3631"></path><path d="M808.8 0L804.5 0L857.8 36.5Z" fill="#c97876" stroke="#c97876"></path><path d="M739.3 0L804.5 0L707.3 -14.7Z" fill="#da4640" stroke="#da4640"></path><path d="M0 335.5L0 436L8.3 350.3Z" fill="#d7544e" stroke="#d7544e"></path><path d="M857.8 36.5L760.5 16.3L815.5 124.5Z" fill="#ba8e8d" stroke="#ba8e8d"></path><path d="M804.5 0L808.8 0L707.3 -14.7Z" fill="#b09898" stroke="#b09898"></path><path d="M900 656.8L903.8 597.5L817.5 585.8Z" fill="#d4615c" stroke="#d4615c"></path><path d="M900 571.5L903.8 597.5L900 443Z" fill="#da4640" stroke="#da4640"></path><path d="M900 443L917.8 675L900 441.3Z" fill="#dd2020" stroke="#dd2020"></path><path d="M900 441.3L917.8 675L900 386.8Z" fill="#d7544e" stroke="#d7544e"></path><path d="M900 386.8L917.8 675L900 340.3Z" fill="#c97876" stroke="#c97876"></path><path d="M900 340.3L917.8 675L900 326.5Z" fill="#c97876" stroke="#c97876"></path><path d="M900 326.5L917.8 675L900 232Z" fill="#d7544e" stroke="#d7544e"></path><path d="M900 232L917.8 675L900 130.8Z" fill="#b09898" stroke="#b09898"></path><path d="M900 130.8L917.8 675L900 120.5Z" fill="#b09898" stroke="#b09898"></path><path d="M917.8 675L900 110.3L900 120.5Z" fill="#c28382" stroke="#c28382"></path><path d="M900 120.5L900 110.3L857.5 140.8Z" fill="#c28382" stroke="#c28382"></path><path d="M0 502.3L46.3 593.5L92.3 527.3Z" fill="#dc3631" stroke="#dc3631"></path><path d="M130.8 625.8L95.5 675L204.8 675Z" fill="#dc3631" stroke="#dc3631"></path><path d="M0 633.5L44.5 599.5L46.3 593.5Z" fill="#cf6d69" stroke="#cf6d69"></path><path d="M46.3 593.5L44.5 599.5L130.8 625.8Z" fill="#da4640" stroke="#da4640"></path><path d="M900 110.3L857.8 36.5L815.5 124.5Z" fill="#da4640" stroke="#da4640"></path><path d="M44.5 599.5L95.5 675L130.8 625.8Z" fill="#d7544e" stroke="#d7544e"></path><path d="M204.8 675L57.3 691.8L213 675Z" fill="#c97876" stroke="#c97876"></path><path d="M0 436L0 502.3L61.3 437Z" fill="#c97876" stroke="#c97876"></path><path d="M13.3 165.8L48.5 164L24.3 100.5Z" fill="#dc3631" stroke="#dc3631"></path><path d="M48.5 164L13.3 165.8L57.5 177.5Z" fill="#b09898" stroke="#b09898"></path><path d="M900 0L843.8 11.3L857.8 36.5Z" fill="#da4640" stroke="#da4640"></path><path d="M857.8 36.5L843.8 11.3L808.8 0Z" fill="#d4615c" stroke="#d4615c"></path><path d="M220 0L134.5 -11.7L229.8 76.3Z" fill="#a5a2a2" stroke="#a5a2a2"></path><path d="M410 -18.7L134.5 -11.7L227.8 0Z" fill="#dd2020" stroke="#dd2020"></path><path d="M13.3 165.8L0 190.5L57.5 177.5Z" fill="#c28382" stroke="#c28382"></path><path d="M134.5 -11.7L108.5 0L212.8 102.5Z" fill="#ba8e8d" stroke="#ba8e8d"></path><path d="M0 162.8L0 165L13.3 165.8Z" fill="#d7544e" stroke="#d7544e"></path><path d="M13.3 165.8L0 165L0 190.5Z" fill="#c28382" stroke="#c28382"></path><path d="M24.3 100.5L48.5 164L74.5 153.8Z" fill="#da4640" stroke="#da4640"></path><path d="M792.5 675L900 656.8L817.5 585.8Z" fill="#d7544e" stroke="#d7544e"></path><path d="M108.5 0L24.3 100.5L74.5 153.8Z" fill="#d7544e" stroke="#d7544e"></path><path d="M541.3 683.8L900 675L792.5 675Z" fill="#cf6d69" stroke="#cf6d69"></path><path d="M792.5 675L900 675L900 656.8Z" fill="#ba8e8d" stroke="#ba8e8d"></path><path d="M900 656.8L917.8 675L903.8 597.5Z" fill="#dd2020" stroke="#dd2020"></path><path d="M0 633.5L57.3 691.8L44.5 599.5Z" fill="#dc3631" stroke="#dc3631"></path><path d="M44.5 599.5L57.3 691.8L95.5 675Z" fill="#c97876" stroke="#c97876"></path><path d="M95.5 675L57.3 691.8L204.8 675Z" fill="#cf6d69" stroke="#cf6d69"></path><path d="M21.3 5.3L0 105.3L24.3 100.5Z" fill="#c28382" stroke="#c28382"></path><path d="M24.3 100.5L0 105.3L13.3 165.8Z" fill="#c97876" stroke="#c97876"></path><path d="M541.3 683.8L917.8 675L900 675Z" fill="#c97876" stroke="#c97876"></path><path d="M900 675L917.8 675L900 656.8Z" fill="#cf6d69" stroke="#cf6d69"></path><path d="M903.8 597.5L917.8 675L900 443Z" fill="#d7544e" stroke="#d7544e"></path><path d="M0 502.3L0 633.5L46.3 593.5Z" fill="#b09898" stroke="#b09898"></path><path d="M900 110.3L900 0L857.8 36.5Z" fill="#a5a2a2" stroke="#a5a2a2"></path><path d="M843.8 11.3L900 0L808.8 0Z" fill="#b09898" stroke="#b09898"></path><path d="M808.8 0L900 0L707.3 -14.7Z" fill="#dc3631" stroke="#dc3631"></path><path d="M917.8 675L900 0L900 110.3Z" fill="#d7544e" stroke="#d7544e"></path><path d="M134.5 -11.7L49.3 0L108.5 0Z" fill="#d4615c" stroke="#d4615c"></path><path d="M108.5 0L49.3 0L24.3 100.5Z" fill="#da4640" stroke="#da4640"></path><path d="M0 633.5L0 675L57.3 691.8Z" fill="#c28382" stroke="#c28382"></path><path d="M49.3 0L21.3 5.3L24.3 100.5Z" fill="#c97876" stroke="#c97876"></path><path d="M0 675L0 685.8L57.3 691.8Z" fill="#cf6d69" stroke="#cf6d69"></path><path d="M0 633.5L-14.7 675L0 675Z" fill="#d7544e" stroke="#d7544e"></path><path d="M0 675L-14.7 675L0 685.8Z" fill="#d7544e" stroke="#d7544e"></path><path d="M0 502.3L-14.7 675L0 633.5Z" fill="#cf6d69" stroke="#cf6d69"></path><path d="M0 436L-14.7 675L0 502.3Z" fill="#ba8e8d" stroke="#ba8e8d"></path><path d="M0 335.5L-14.7 675L0 436Z" fill="#d4615c" stroke="#d4615c"></path><path d="M0 324.8L-14.7 675L0 335.5Z" fill="#cf6d69" stroke="#cf6d69"></path><path d="M0 314.3L-14.7 675L0 324.8Z" fill="#b09898" stroke="#b09898"></path><path d="M0 190.5L-14.7 675L0 314.3Z" fill="#da4640" stroke="#da4640"></path><path d="M0 165L-14.7 675L0 190.5Z" fill="#dd2020" stroke="#dd2020"></path><path d="M0 162.8L-14.7 675L0 165Z" fill="#c97876" stroke="#c97876"></path><path d="M0 105.3L-14.7 675L0 162.8Z" fill="#da4640" stroke="#da4640"></path><path d="M21.3 5.3L0 0L0 105.3Z" fill="#b09898" stroke="#b09898"></path><path d="M0 105.3L0 0L-14.7 675Z" fill="#ba8e8d" stroke="#ba8e8d"></path><path d="M49.3 0L0 0L21.3 5.3Z" fill="#b09898" stroke="#b09898"></path><path d="M134.5 -11.7L0 0L49.3 0Z" fill="#cf6d69" stroke="#cf6d69"></path></g></svg>